<mxfile host="app.diagrams.net" agent="Mozilla/5.0 (Windows NT 10.0; Win64; x64) AppleWebKit/537.36 (KHTML, like Gecko) Chrome/135.0.0.0 Safari/537.36" version="26.2.12">
  <diagram name="Page-1" id="cIX6xbV3QXOhbYmiDzRd">
    <mxGraphModel dx="2060" dy="431" grid="1" gridSize="10" guides="1" tooltips="1" connect="1" arrows="1" fold="1" page="1" pageScale="1" pageWidth="1169" pageHeight="1654" math="0" shadow="0">
      <root>
        <mxCell id="0" />
        <mxCell id="1" parent="0" />
        <mxCell id="bV8MIJJ8vXBPaFqG49-s-22" style="edgeStyle=orthogonalEdgeStyle;rounded=0;orthogonalLoop=1;jettySize=auto;html=1;entryX=1;entryY=0.5;entryDx=0;entryDy=0;fillColor=#fff2cc;strokeColor=#d6b656;" edge="1" parent="1" source="bV8MIJJ8vXBPaFqG49-s-1" target="bV8MIJJ8vXBPaFqG49-s-14">
          <mxGeometry relative="1" as="geometry" />
        </mxCell>
        <mxCell id="bV8MIJJ8vXBPaFqG49-s-23" style="edgeStyle=orthogonalEdgeStyle;rounded=0;orthogonalLoop=1;jettySize=auto;html=1;fillColor=#fff2cc;strokeColor=#d6b656;" edge="1" parent="1">
          <mxGeometry relative="1" as="geometry">
            <mxPoint x="554.9957569495583" y="340" as="sourcePoint" />
            <mxPoint x="614.17" y="410" as="targetPoint" />
            <Array as="points">
              <mxPoint x="614.17" y="340" />
            </Array>
          </mxGeometry>
        </mxCell>
        <mxCell id="bV8MIJJ8vXBPaFqG49-s-37" style="edgeStyle=orthogonalEdgeStyle;rounded=0;orthogonalLoop=1;jettySize=auto;html=1;entryX=1;entryY=0.5;entryDx=0;entryDy=0;fillColor=#fff2cc;strokeColor=#d6b656;" edge="1" parent="1" source="bV8MIJJ8vXBPaFqG49-s-1" target="bV8MIJJ8vXBPaFqG49-s-6">
          <mxGeometry relative="1" as="geometry" />
        </mxCell>
        <mxCell id="bV8MIJJ8vXBPaFqG49-s-1" value="&#xa;P2.1: Browse Accommodation &amp;amp; Transport&#xa;&#xa;" style="ellipse;whiteSpace=wrap;html=1;aspect=fixed;fillColor=#dae8fc;strokeColor=#6c8ebf;fontStyle=1" vertex="1" parent="1">
          <mxGeometry x="460" y="290" width="100" height="100" as="geometry" />
        </mxCell>
        <mxCell id="bV8MIJJ8vXBPaFqG49-s-38" style="edgeStyle=orthogonalEdgeStyle;rounded=0;orthogonalLoop=1;jettySize=auto;html=1;entryX=0;entryY=0.25;entryDx=0;entryDy=0;fillColor=#fff2cc;strokeColor=#d6b656;" edge="1" parent="1" source="bV8MIJJ8vXBPaFqG49-s-2" target="bV8MIJJ8vXBPaFqG49-s-6">
          <mxGeometry relative="1" as="geometry">
            <Array as="points">
              <mxPoint x="225" y="330" />
              <mxPoint x="225" y="320" />
            </Array>
          </mxGeometry>
        </mxCell>
        <mxCell id="bV8MIJJ8vXBPaFqG49-s-2" value="&#xa;P2.4: Confirm Booking&#xa;&#xa;" style="ellipse;whiteSpace=wrap;html=1;aspect=fixed;fillColor=#dae8fc;strokeColor=#6c8ebf;fontStyle=1" vertex="1" parent="1">
          <mxGeometry x="90" y="290" width="80" height="80" as="geometry" />
        </mxCell>
        <mxCell id="bV8MIJJ8vXBPaFqG49-s-47" style="edgeStyle=orthogonalEdgeStyle;rounded=0;orthogonalLoop=1;jettySize=auto;html=1;entryX=1;entryY=0.5;entryDx=0;entryDy=0;fillColor=#fff2cc;strokeColor=#d6b656;" edge="1" parent="1">
          <mxGeometry relative="1" as="geometry">
            <mxPoint x="90" y="460" as="sourcePoint" />
            <mxPoint x="-20" y="470" as="targetPoint" />
          </mxGeometry>
        </mxCell>
        <mxCell id="bV8MIJJ8vXBPaFqG49-s-3" value="&#xa;P2.5: Update Providers&#xa;&#xa;" style="ellipse;whiteSpace=wrap;html=1;aspect=fixed;fillColor=#dae8fc;strokeColor=#6c8ebf;fontStyle=1" vertex="1" parent="1">
          <mxGeometry x="90" y="430" width="80" height="80" as="geometry" />
        </mxCell>
        <mxCell id="bV8MIJJ8vXBPaFqG49-s-4" value="&#xa;P2.3: Select Booking Items&#xa;&#xa;" style="ellipse;whiteSpace=wrap;html=1;aspect=fixed;fillColor=#dae8fc;strokeColor=#6c8ebf;fontStyle=1" vertex="1" parent="1">
          <mxGeometry x="350" y="540" width="80" height="80" as="geometry" />
        </mxCell>
        <mxCell id="bV8MIJJ8vXBPaFqG49-s-34" style="edgeStyle=orthogonalEdgeStyle;rounded=0;orthogonalLoop=1;jettySize=auto;html=1;entryX=0.75;entryY=1;entryDx=0;entryDy=0;fillColor=#fff2cc;strokeColor=#d6b656;" edge="1" parent="1" source="bV8MIJJ8vXBPaFqG49-s-5" target="bV8MIJJ8vXBPaFqG49-s-6">
          <mxGeometry relative="1" as="geometry" />
        </mxCell>
        <mxCell id="bV8MIJJ8vXBPaFqG49-s-5" value="&#xa;P2.2: Check Availability&#xa;&#xa;" style="ellipse;whiteSpace=wrap;html=1;aspect=fixed;fillColor=#dae8fc;strokeColor=#6c8ebf;fontStyle=1" vertex="1" parent="1">
          <mxGeometry x="270" y="440" width="80" height="80" as="geometry" />
        </mxCell>
        <mxCell id="bV8MIJJ8vXBPaFqG49-s-8" style="edgeStyle=orthogonalEdgeStyle;rounded=0;orthogonalLoop=1;jettySize=auto;html=1;fillColor=#fff2cc;strokeColor=#d6b656;" edge="1" parent="1" source="bV8MIJJ8vXBPaFqG49-s-6" target="bV8MIJJ8vXBPaFqG49-s-1">
          <mxGeometry relative="1" as="geometry">
            <Array as="points">
              <mxPoint x="420" y="360" />
              <mxPoint x="420" y="360" />
            </Array>
          </mxGeometry>
        </mxCell>
        <mxCell id="bV8MIJJ8vXBPaFqG49-s-39" style="edgeStyle=orthogonalEdgeStyle;rounded=0;orthogonalLoop=1;jettySize=auto;html=1;fillColor=#fff2cc;strokeColor=#d6b656;" edge="1" parent="1" source="bV8MIJJ8vXBPaFqG49-s-6" target="bV8MIJJ8vXBPaFqG49-s-2">
          <mxGeometry relative="1" as="geometry">
            <Array as="points">
              <mxPoint x="225" y="360" />
              <mxPoint x="225" y="350" />
            </Array>
          </mxGeometry>
        </mxCell>
        <mxCell id="bV8MIJJ8vXBPaFqG49-s-6" value="&lt;b&gt;User&amp;nbsp;&lt;/b&gt;" style="whiteSpace=wrap;html=1;aspect=fixed;fillColor=#dae8fc;strokeColor=#6c8ebf;" vertex="1" parent="1">
          <mxGeometry x="270" y="300" width="80" height="80" as="geometry" />
        </mxCell>
        <mxCell id="bV8MIJJ8vXBPaFqG49-s-36" style="edgeStyle=orthogonalEdgeStyle;rounded=0;orthogonalLoop=1;jettySize=auto;html=1;fillColor=#fff2cc;strokeColor=#d6b656;" edge="1" parent="1">
          <mxGeometry relative="1" as="geometry">
            <mxPoint x="680" y="290" as="sourcePoint" />
            <mxPoint x="545.8257569495584" y="315" as="targetPoint" />
            <Array as="points">
              <mxPoint x="615" y="290" />
              <mxPoint x="615" y="315" />
            </Array>
          </mxGeometry>
        </mxCell>
        <mxCell id="bV8MIJJ8vXBPaFqG49-s-9" value="Accommodation/Transport Options" style="whiteSpace=wrap;html=1;aspect=fixed;fillColor=#dae8fc;strokeColor=#6c8ebf;" vertex="1" parent="1">
          <mxGeometry x="690" y="290" width="90" height="90" as="geometry" />
        </mxCell>
        <mxCell id="bV8MIJJ8vXBPaFqG49-s-10" style="edgeStyle=orthogonalEdgeStyle;rounded=0;orthogonalLoop=1;jettySize=auto;html=1;entryX=0.008;entryY=0.575;entryDx=0;entryDy=0;entryPerimeter=0;fillColor=#fff2cc;strokeColor=#d6b656;" edge="1" parent="1">
          <mxGeometry relative="1" as="geometry">
            <mxPoint x="560" y="320" as="sourcePoint" />
            <mxPoint x="690.72" y="321.75" as="targetPoint" />
            <Array as="points">
              <mxPoint x="630" y="320" />
              <mxPoint x="630" y="322" />
            </Array>
          </mxGeometry>
        </mxCell>
        <mxCell id="bV8MIJJ8vXBPaFqG49-s-12" value="" style="endArrow=none;html=1;rounded=0;fontColor=#66FF66;fillColor=#d5e8d4;strokeColor=#82b366;" edge="1" parent="1">
          <mxGeometry width="50" height="50" relative="1" as="geometry">
            <mxPoint x="430" y="430" as="sourcePoint" />
            <mxPoint x="520" y="430" as="targetPoint" />
          </mxGeometry>
        </mxCell>
        <mxCell id="bV8MIJJ8vXBPaFqG49-s-13" value="" style="endArrow=none;html=1;rounded=0;fontColor=#66FF66;fillColor=#d5e8d4;strokeColor=#82b366;" edge="1" parent="1">
          <mxGeometry width="50" height="50" relative="1" as="geometry">
            <mxPoint x="430" y="460" as="sourcePoint" />
            <mxPoint x="520" y="460" as="targetPoint" />
          </mxGeometry>
        </mxCell>
        <mxCell id="bV8MIJJ8vXBPaFqG49-s-14" value="Accommodation Details" style="text;html=1;align=center;verticalAlign=middle;whiteSpace=wrap;rounded=0;strokeWidth=0;fillColor=none;strokeColor=#66FF66;fontColor=#66FF66;" vertex="1" parent="1">
          <mxGeometry x="450" y="430" width="60" height="30" as="geometry" />
        </mxCell>
        <mxCell id="bV8MIJJ8vXBPaFqG49-s-15" style="edgeStyle=orthogonalEdgeStyle;rounded=0;orthogonalLoop=1;jettySize=auto;html=1;entryX=0.34;entryY=0.93;entryDx=0;entryDy=0;entryPerimeter=0;fillColor=#fff2cc;strokeColor=#d6b656;" edge="1" parent="1" source="bV8MIJJ8vXBPaFqG49-s-14" target="bV8MIJJ8vXBPaFqG49-s-1">
          <mxGeometry relative="1" as="geometry" />
        </mxCell>
        <mxCell id="bV8MIJJ8vXBPaFqG49-s-16" value="d" style="endArrow=none;html=1;rounded=0;fontColor=#66FF66;fillColor=#d5e8d4;strokeColor=#82b366;" edge="1" parent="1">
          <mxGeometry width="50" height="50" relative="1" as="geometry">
            <mxPoint x="570" y="420" as="sourcePoint" />
            <mxPoint x="660" y="420" as="targetPoint" />
          </mxGeometry>
        </mxCell>
        <mxCell id="bV8MIJJ8vXBPaFqG49-s-17" value="" style="endArrow=none;html=1;rounded=0;fontColor=#66FF66;fillColor=#d5e8d4;strokeColor=#82b366;" edge="1" parent="1">
          <mxGeometry width="50" height="50" relative="1" as="geometry">
            <mxPoint x="570" y="459" as="sourcePoint" />
            <mxPoint x="660" y="460" as="targetPoint" />
            <Array as="points">
              <mxPoint x="610" y="459" />
            </Array>
          </mxGeometry>
        </mxCell>
        <mxCell id="bV8MIJJ8vXBPaFqG49-s-18" value="&#xa;Transport Details&#xa;&#xa;" style="text;html=1;align=center;verticalAlign=middle;whiteSpace=wrap;rounded=0;strokeWidth=0;fillColor=none;strokeColor=#66FF66;fontColor=#66FF66;" vertex="1" parent="1">
          <mxGeometry x="585" y="430" width="60" height="30" as="geometry" />
        </mxCell>
        <mxCell id="bV8MIJJ8vXBPaFqG49-s-21" style="edgeStyle=orthogonalEdgeStyle;rounded=0;orthogonalLoop=1;jettySize=auto;html=1;entryX=0.95;entryY=0.8;entryDx=0;entryDy=0;entryPerimeter=0;fillColor=#fff2cc;strokeColor=#d6b656;" edge="1" parent="1" source="bV8MIJJ8vXBPaFqG49-s-18" target="bV8MIJJ8vXBPaFqG49-s-1">
          <mxGeometry relative="1" as="geometry" />
        </mxCell>
        <mxCell id="bV8MIJJ8vXBPaFqG49-s-24" style="edgeStyle=orthogonalEdgeStyle;rounded=0;orthogonalLoop=1;jettySize=auto;html=1;entryX=0.388;entryY=0.063;entryDx=0;entryDy=0;entryPerimeter=0;fillColor=#fff2cc;strokeColor=#d6b656;" edge="1" parent="1" source="bV8MIJJ8vXBPaFqG49-s-6" target="bV8MIJJ8vXBPaFqG49-s-5">
          <mxGeometry relative="1" as="geometry" />
        </mxCell>
        <mxCell id="bV8MIJJ8vXBPaFqG49-s-25" style="edgeStyle=orthogonalEdgeStyle;rounded=0;orthogonalLoop=1;jettySize=auto;html=1;entryX=-0.012;entryY=0.663;entryDx=0;entryDy=0;entryPerimeter=0;fillColor=#fff2cc;strokeColor=#d6b656;" edge="1" parent="1" source="bV8MIJJ8vXBPaFqG49-s-5" target="bV8MIJJ8vXBPaFqG49-s-4">
          <mxGeometry relative="1" as="geometry" />
        </mxCell>
        <mxCell id="bV8MIJJ8vXBPaFqG49-s-26" style="edgeStyle=orthogonalEdgeStyle;rounded=0;orthogonalLoop=1;jettySize=auto;html=1;entryX=0.963;entryY=0.638;entryDx=0;entryDy=0;entryPerimeter=0;fillColor=#fff2cc;strokeColor=#d6b656;" edge="1" parent="1" source="bV8MIJJ8vXBPaFqG49-s-5" target="bV8MIJJ8vXBPaFqG49-s-3">
          <mxGeometry relative="1" as="geometry" />
        </mxCell>
        <mxCell id="bV8MIJJ8vXBPaFqG49-s-27" value="&#xa;Contact Accommodation/Transport Provider for confirmation&#xa;&#xa;" style="whiteSpace=wrap;html=1;aspect=fixed;fillColor=#dae8fc;strokeColor=#6c8ebf;fontStyle=1" vertex="1" parent="1">
          <mxGeometry x="30" y="570" width="140" height="140" as="geometry" />
        </mxCell>
        <mxCell id="bV8MIJJ8vXBPaFqG49-s-31" style="edgeStyle=orthogonalEdgeStyle;rounded=0;orthogonalLoop=1;jettySize=auto;html=1;entryX=0.664;entryY=0;entryDx=0;entryDy=0;entryPerimeter=0;fillColor=#fff2cc;strokeColor=#d6b656;" edge="1" parent="1" source="bV8MIJJ8vXBPaFqG49-s-3" target="bV8MIJJ8vXBPaFqG49-s-27">
          <mxGeometry relative="1" as="geometry" />
        </mxCell>
        <mxCell id="bV8MIJJ8vXBPaFqG49-s-32" style="edgeStyle=orthogonalEdgeStyle;rounded=0;orthogonalLoop=1;jettySize=auto;html=1;entryX=0.113;entryY=0.75;entryDx=0;entryDy=0;entryPerimeter=0;fillColor=#fff2cc;strokeColor=#d6b656;" edge="1" parent="1" source="bV8MIJJ8vXBPaFqG49-s-27" target="bV8MIJJ8vXBPaFqG49-s-3">
          <mxGeometry relative="1" as="geometry" />
        </mxCell>
        <mxCell id="bV8MIJJ8vXBPaFqG49-s-33" style="edgeStyle=orthogonalEdgeStyle;rounded=0;orthogonalLoop=1;jettySize=auto;html=1;entryX=-0.012;entryY=0.35;entryDx=0;entryDy=0;entryPerimeter=0;fillColor=#fff2cc;strokeColor=#d6b656;" edge="1" parent="1" source="bV8MIJJ8vXBPaFqG49-s-3" target="bV8MIJJ8vXBPaFqG49-s-5">
          <mxGeometry relative="1" as="geometry" />
        </mxCell>
        <mxCell id="bV8MIJJ8vXBPaFqG49-s-35" style="edgeStyle=orthogonalEdgeStyle;rounded=0;orthogonalLoop=1;jettySize=auto;html=1;entryX=0.588;entryY=-0.037;entryDx=0;entryDy=0;entryPerimeter=0;fillColor=#fff2cc;strokeColor=#d6b656;" edge="1" parent="1" source="bV8MIJJ8vXBPaFqG49-s-5" target="bV8MIJJ8vXBPaFqG49-s-4">
          <mxGeometry relative="1" as="geometry">
            <Array as="points">
              <mxPoint x="370" y="480" />
              <mxPoint x="370" y="520" />
              <mxPoint x="397" y="520" />
            </Array>
          </mxGeometry>
        </mxCell>
        <mxCell id="bV8MIJJ8vXBPaFqG49-s-40" value="d" style="endArrow=none;html=1;rounded=0;fontColor=#66FF66;fillColor=#d5e8d4;strokeColor=#82b366;" edge="1" parent="1">
          <mxGeometry width="50" height="50" relative="1" as="geometry">
            <mxPoint x="-10" y="370" as="sourcePoint" />
            <mxPoint x="80" y="370" as="targetPoint" />
          </mxGeometry>
        </mxCell>
        <mxCell id="bV8MIJJ8vXBPaFqG49-s-41" value="" style="endArrow=none;html=1;rounded=0;fontColor=#66FF66;fillColor=#d5e8d4;strokeColor=#82b366;" edge="1" parent="1">
          <mxGeometry width="50" height="50" relative="1" as="geometry">
            <mxPoint x="-10" y="400" as="sourcePoint" />
            <mxPoint x="80" y="400" as="targetPoint" />
          </mxGeometry>
        </mxCell>
        <mxCell id="bV8MIJJ8vXBPaFqG49-s-43" style="edgeStyle=orthogonalEdgeStyle;rounded=0;orthogonalLoop=1;jettySize=auto;html=1;entryX=0.5;entryY=1;entryDx=0;entryDy=0;fillColor=#fff2cc;strokeColor=#d6b656;" edge="1" parent="1" source="bV8MIJJ8vXBPaFqG49-s-42" target="bV8MIJJ8vXBPaFqG49-s-2">
          <mxGeometry relative="1" as="geometry" />
        </mxCell>
        <mxCell id="bV8MIJJ8vXBPaFqG49-s-42" value="&amp;nbsp;Booking Data" style="text;html=1;align=center;verticalAlign=middle;whiteSpace=wrap;rounded=0;strokeWidth=0;fillColor=none;strokeColor=#66FF66;fontColor=#66FF66;" vertex="1" parent="1">
          <mxGeometry x="10" y="370" width="60" height="30" as="geometry" />
        </mxCell>
        <mxCell id="bV8MIJJ8vXBPaFqG49-s-44" style="edgeStyle=orthogonalEdgeStyle;rounded=0;orthogonalLoop=1;jettySize=auto;html=1;entryX=0.367;entryY=0;entryDx=0;entryDy=0;entryPerimeter=0;fillColor=#fff2cc;strokeColor=#d6b656;" edge="1" parent="1" source="bV8MIJJ8vXBPaFqG49-s-2" target="bV8MIJJ8vXBPaFqG49-s-42">
          <mxGeometry relative="1" as="geometry" />
        </mxCell>
        <mxCell id="bV8MIJJ8vXBPaFqG49-s-45" value="&lt;b&gt;P1.6: External Service Integration&lt;/b&gt;" style="ellipse;whiteSpace=wrap;html=1;aspect=fixed;fillColor=#dae8fc;strokeColor=#6c8ebf;" vertex="1" parent="1">
          <mxGeometry x="-90" y="445" width="70" height="70" as="geometry" />
        </mxCell>
        <mxCell id="bV8MIJJ8vXBPaFqG49-s-49" style="edgeStyle=orthogonalEdgeStyle;rounded=0;orthogonalLoop=1;jettySize=auto;html=1;entryX=0.075;entryY=0.638;entryDx=0;entryDy=0;entryPerimeter=0;fillColor=#fff2cc;strokeColor=#d6b656;" edge="1" parent="1" source="bV8MIJJ8vXBPaFqG49-s-45" target="bV8MIJJ8vXBPaFqG49-s-3">
          <mxGeometry relative="1" as="geometry" />
        </mxCell>
      </root>
    </mxGraphModel>
  </diagram>
</mxfile>
